<?xml version="1.0" encoding="utf-8"?>
<!-- Generator: Adobe Illustrator 24.1.0, SVG Export Plug-In . SVG Version: 6.00 Build 0)  -->
<svg version="1.1" id="Layer_1" xmlns="http://www.w3.org/2000/svg" xmlns:xlink="http://www.w3.org/1999/xlink" x="0px" y="0px"
	 viewBox="0 0 512 640" style="enable-background:new 0 0 512 640;" xml:space="preserve">
<g>
	<path d="M211,223c35.9,0,66.9-21,81.5-51.3c5,2,10.4,3.1,15.9,3.1c23.2,0,42.1-18.9,42.1-42.1s-18.9-42.1-42.1-42.1
		c-5.5,0-10.9,1.1-15.9,3.1c-14.6-30.3-45.6-51.3-81.5-51.3c-49.8,0-90.4,40.5-90.4,90.4S161.2,223,211,223z M211,203
		c-32.8,0-60.4-22.5-68.2-52.9c11-4.4,23.9-12,34-25c5.8-7.5,10.1-15.9,12.8-25.3c0.9,1.7,1.8,3.5,2.8,5.2
		c12.7,22.1,37,48.8,82.4,57.1C263.7,186.2,239.3,203,211,203z M308.4,110.5c12.2,0,22.1,9.9,22.1,22.1s-9.9,22.1-22.1,22.1
		c-3.2,0-6.4-0.7-9.3-2c1.5-6.5,2.3-13.2,2.3-20.1c0-6.9-0.8-13.6-2.3-20.1C302,111.2,305.2,110.5,308.4,110.5z M281.4,132.6
		c0,3.5-0.3,6.9-0.7,10.2c-31.6-5.2-55.3-21-70.5-47.1c-6.9-11.9-10.7-23.7-12.7-32.1c4.4-0.9,8.9-1.3,13.5-1.3
		C249.8,62.3,281.4,93.8,281.4,132.6z M173.1,73.4c-0.2,19-6.3,43-32.4,55.8C141.9,105.8,154.5,85.4,173.1,73.4z"/>
	<path d="M371,289.7c-1.6,0-3.2,0.1-4.9,0.1c-11.6-32.4-42.3-54.4-77.4-54.4h-5.1l-3,4.1c-16.2,22.1-42.3,35.3-69.7,35.3
		s-53.4-13.2-69.7-35.3l-3-4.1h-5.1c-45.4,0-82.3,37-82.3,82.3v152h320c49.6,0,90-40.4,90-90S420.6,289.7,371,289.7z M71,317.8
		c0-32.7,25.4-59.7,57.5-62.1c20.1,24.6,50.5,39.1,82.5,39.1s62.3-14.5,82.5-39.1c23.4,1.8,43.5,16.4,52.5,37.6
		c-16.6,4.8-31.6,14.3-43,27.5c-14.2,16.3-22,37.3-22,59c0,28,13,53.4,33.5,70H71V317.8z M371,449.7c-2.9,0-5.9-0.2-8.8-0.5
		c-34.9-4.4-61.2-34.2-61.2-69.5c0-16.9,6.1-33.1,17.1-45.8c10.9-12.6,26-20.9,42.3-23.4c3.5-0.5,7-0.8,10.6-0.8
		c38.6,0,70,31.4,70,70S409.6,449.7,371,449.7z"/>
	<path d="M379.7,368.5c2.3-4.3,3.5-9.2,3.5-14.2c0-8.2-3.2-15.8-9-21.6c-11.9-11.9-31.3-12-43.2-0.1c-11.9,11.9-11.9,31.3,0.1,43.2
		c5.8,5.8,13.5,9,21.6,9h0.1c5.1,0,10-1.2,14.3-3.5l11.4,11.5l-7.2,7.2c-3.5,3.5-3.5,9.2,0,12.7c1.8,1.8,4.1,2.6,6.4,2.6
		s4.6-0.9,6.4-2.6l7.2-7.2l7.1,7.2l-7.7,7.7c-3.5,3.5-3.5,9.2,0,12.7c1.8,1.8,4.1,2.6,6.4,2.6s4.6-0.9,6.4-2.6l14.1-14.1
		c3.5-3.5,3.5-9.2,0-12.7L379.7,368.5z M352.7,366.9L352.7,366.9c-3.4,0-6.6-1.3-9-3.7c-4.9-4.9-5-12.9-0.1-17.8
		c2.4-2.4,5.6-3.6,8.8-3.6c3.2,0,6.5,1.2,9,3.7c2.4,2.4,3.7,5.6,3.7,8.9s-1.3,6.5-3.6,8.8C359.2,365.6,356,366.9,352.7,366.9z"/>
</g>
</svg>
