<?xml version="1.0" encoding="utf-8"?>
<!-- Generator: Adobe Illustrator 24.1.0, SVG Export Plug-In . SVG Version: 6.00 Build 0)  -->
<svg version="1.1" fill="#5F5F5F"
	 id="Layer_1" xmlns:cc="http://creativecommons.org/ns#" xmlns:dc="http://purl.org/dc/elements/1.1/" xmlns:inkscape="http://www.inkscape.org/namespaces/inkscape" xmlns:rdf="http://www.w3.org/1999/02/22-rdf-syntax-ns#" xmlns:sodipodi="http://sodipodi.sourceforge.net/DTD/sodipodi-0.dtd" xmlns:svg="http://www.w3.org/2000/svg"
	 xmlns="http://www.w3.org/2000/svg" xmlns:xlink="http://www.w3.org/1999/xlink" x="0px" y="0px" viewBox="0 0 100 125"
	 style="enable-background:new 0 0 100 125;" xml:space="preserve">
<g transform="translate(0,-952.36218)">
	<path d="M16,971.4c-2.2,0-4,1.8-4,4s1.8,4,4,4h68c2.2,0,4-1.8,4-4s-1.8-4-4-4H16z M16,998.4c-2.2,0-4,1.8-4,4c0,2.2,1.8,4,4,4h68
		c2.2,0,4-1.8,4-4s-1.8-4-4-4H16z M16,1025.4c-2.2,0-4,1.8-4,4s1.8,4,4,4h68c2.2,0,4-1.8,4-4s-1.8-4-4-4H16z"/>
</g>
</svg>
