<?xml version="1.0" encoding="utf-8"?>
<!-- Generator: Adobe Illustrator 24.1.0, SVG Export Plug-In . SVG Version: 6.00 Build 0)  -->
<svg fill="#5F5F5F" version="1.1" id="Layer_1" xmlns="http://www.w3.org/2000/svg" xmlns:xlink="http://www.w3.org/1999/xlink" x="0px" y="0px"
	 viewBox="0 0 73.7 92.1" style="enable-background:new 0 0 73.7 92.1;" xml:space="preserve">
<path d="M36.9,73.7c20.3,0,36.9-16.5,36.9-36.8C73.7,16.5,57.2,0,36.9,0S0,16.5,0,36.8C0,57.2,16.5,73.7,36.9,73.7z M36.9,68
	c-8.6,0-16.4-3.5-22.1-9.2c5.8-5.9,13.7-9.2,22.1-9.2c8.3,0,16.2,3.3,22.1,9.2C53.3,64.5,45.5,68,36.9,68z M25.5,32.7
	c0-6.3,5.1-11.3,11.3-11.3s11.3,5.1,11.3,11.3S43.1,44,36.9,44S25.5,38.9,25.5,32.7z M36.9,5.7C54,5.7,68,19.7,68,36.9
	c0,6.5-2,12.6-5.5,17.6c-4.2-4.1-9.3-7.1-14.8-8.8c3.7-3.1,6.1-7.8,6.1-13c0-9.4-7.6-17-17-17s-17,7.6-17,17c0,5.2,2.4,9.9,6.1,13
	c-5.5,1.7-10.6,4.7-14.8,8.8c-3.5-5-5.5-11.1-5.5-17.6C5.7,19.7,19.7,5.7,36.9,5.7z"/>
</svg>
