<?xml version="1.0" encoding="utf-8"?>
<!-- Generator: Adobe Illustrator 24.1.0, SVG Export Plug-In . SVG Version: 6.00 Build 0)  -->
<svg fill="#FC9777" version="1.1" id="Layer_1" xmlns="http://www.w3.org/2000/svg" xmlns:xlink="http://www.w3.org/1999/xlink" x="0px" y="0px"
	 viewBox="0 0 67 83.8" style="enable-background:new 0 0 67 83.8;" xml:space="preserve">
<g>
	<path d="M63.8,61.2l1.5-4.7c0.1-0.3,0-0.6-0.1-0.9s-0.5-0.4-0.8-0.4h-2.9V20.7h0.5c1.9,0,3.4-1.5,3.4-3.4V6.8
		c0-1.9-1.5-3.4-3.4-3.4H45.3c-1.9,0-3.4,1.5-3.4,3.4v3.8H5.6v44.5H2.6c-0.3,0-0.6,0.2-0.8,0.4s-0.2,0.6-0.1,0.9l1.5,4.7
		c0.5,1.4,1.8,2.4,3.3,2.4h54.1C62,63.6,63.4,62.7,63.8,61.2z M43.9,6.8c0-0.8,0.6-1.4,1.4-1.4h16.6c0.8,0,1.4,0.6,1.4,1.4v10.5
		c0,0.8-0.6,1.4-1.4,1.4c-4.1,0-8.1,0-11.7,0l-2.8,2.1v-2.1h-2.2c-0.8,0-1.4-0.6-1.4-1.4C43.9,13.7,43.9,10.4,43.9,6.8z M19.2,32.8
		c-2.4-2.1-1.4-0.3-1.6-5.1c0-1.6,1-3,2.4-3.4c0.6-0.1,1.1-0.4,1.7-0.6c5.4-2.7,8-1.6,12.3-1.9c2.1,0,3.8,1.6,4,3.6l-0.9,0.9
		c-0.5,0.5-1,0.9-1.6,1.3H22.7h0c-1.9,0-3.5,1.6-3.5,3.5v0V32.8z M21.2,34.7c0-0.2,0-0.5,0-0.7v-2.9c0-0.8,0.7-1.5,1.5-1.5h11.8v1
		v3.1c0,2.7-1.6,5.5-4.4,6.5C26.1,41.7,21.7,39.1,21.2,34.7z M25.7,42.4c1.4,0.3,2.7,0.5,4.6,0v1.9h-4.6V42.4z M37.3,46.2
		c1.1,0,1.9,0.9,1.9,1.9V50H16.6v-1.9c0-1.1,0.9-1.9,1.9-1.9C23,46.2,32.7,46.2,37.3,46.2z M37.3,44.2h-5v-2.8
		c2.6-1.6,4.3-4.5,4.3-7.7v-4.4c0.7-0.5,1.4-1,2-1.6l1.5-1.5v-0.4c0-3.3-2.7-6-6-6c-4.2,0.3-7.3-0.9-13.2,2.1
		c-0.4,0.2-0.8,0.4-1.3,0.5c-2.3,0.6-3.9,2.8-3.9,5.3c0.2,2.9-0.5,4.3,0.8,5.4l2.9,2.4c0.4,2.6,2.1,4.8,4.3,6.1v2.6h-5.1
		c-2.2,0-3.9,1.8-3.9,3.9V50h-1.9V17.8h29.2c0.2,1.4,1.3,2.6,2.7,2.9c0.2,0,0.4,0.1,0.7,0.1h0.2v4.1l5.5-4.1h3.4V50H41.2v-1.9
		C41.2,46,39.4,44.2,37.3,44.2z M7.6,12.6h34.3v3.1H10.7V52h45.6V20.7h3.2v34.4H7.6V12.6z M5.1,60.6L4,57.2h1.6v0h55.9v0H63
		l-1.1,3.4c-0.2,0.6-0.8,1-1.4,1H6.5C5.8,61.6,5.3,61.2,5.1,60.6z"/>
	<rect x="9.9" y="58.4" width="2.2" height="2"/>
	<rect x="14.5" y="58.4" width="2.2" height="2"/>
	<rect x="19.1" y="58.4" width="2.2" height="2"/>
	<path d="M51.5,16.5c0.4,0.2,0.8,0.1,1.1-0.1l4.7-3.7c0.2-0.2,0.4-0.5,0.4-0.8s-0.1-0.6-0.4-0.8l-4.7-3.7c-0.3-0.2-0.7-0.3-1.1-0.1
		C51.2,7.5,51,7.8,51,8.2v7.4C51,16,51.2,16.4,51.5,16.5z M53,10.3l2.1,1.6L53,13.6V10.3z"/>
</g>
</svg>
