<?xml version="1.0" encoding="utf-8"?>
<!-- Generator: Adobe Illustrator 24.1.0, SVG Export Plug-In . SVG Version: 6.00 Build 0)  -->
<svg fill="#FC9777" version="1.1" xmlns="http://www.w3.org/2000/svg" xmlns:xlink="http://www.w3.org/1999/xlink" x="0px" y="0px"
	 viewBox="0 0 100 125" style="enable-background:new 0 0 100 125;" xml:space="preserve">
<g id="Layer_2">
</g>
<g id="Layer_1">
	<path d="M17.6,62.3l-0.1,0.1c-0.1,0.1-0.1,0.2-0.2,0.3c0,0,0,0,0,0.1c-0.1,0.1-0.1,0.3-0.1,0.4l0,0l-2.7,20.1
		c-0.1,0.6,0.1,1.2,0.5,1.6s0.8,0.5,1.3,0.5c0.1,0,0.2,0,0.3,0l20.1-2.7l0,0c0.2,0,0.3-0.1,0.4-0.1c0,0,0,0,0.1,0
		c0.1-0.1,0.2-0.1,0.3-0.2l0.1-0.1c0,0,0.1,0,0.1-0.1l36.7-36.7c0.7-0.7,0.7-1.9,0-2.6s-1.9-0.7-2.6,0L36.4,78.3l-6.1-6.1l35.3-35.3
		c0.7-0.7,0.7-1.9,0-2.6s-1.9-0.7-2.6,0L27.7,69.6l-6.1-6.1l35.3-35.3c0.7-0.7,0.7-1.9,0-2.6s-1.9-0.7-2.6,0L17.6,62.3
		C17.6,62.2,17.6,62.2,17.6,62.3z M18.5,81.5l1.9-14l12.1,12.1L18.5,81.5z M59.9,19.9c-0.4,0.4-0.5,0.8-0.5,1.3s0.2,1,0.5,1.3
		l17.4,17.4c0.4,0.4,0.8,0.5,1.3,0.5s1-0.2,1.3-0.5l6-6c2.9-2.9,2.9-7.5,0-10.4l0,0l-9.7-9.7c-1.4-1.4-3.2-2.2-5.2-2.2
		s-3.8,0.8-5.2,2.2L59.9,19.9z M71.2,15.4c1,0,1.9,0.4,2.6,1.1l9.7,9.7c1.4,1.4,1.4,3.7,0,5.1L78.8,36L64,21.2l4.7-4.7
		C69.3,15.8,70.2,15.4,71.2,15.4z M81.9,69l-2.1-2.1l-3.9,3.9c-0.4,0.4-0.8,0.5-1.3,0.5s-1-0.2-1.3-0.5c-0.7-0.7-0.7-1.9,0-2.6
		l3.9-3.9l-2-2l-3.9,3.9c-0.4,0.4-0.8,0.5-1.3,0.5s-1-0.2-1.3-0.5c-0.7-0.7-0.7-1.9,0-2.6l3.9-3.9l-1.9-1.9c-0.7-0.7-0.7-1.9,0-2.6
		s1.9-0.7,2.6,0L86,67.9c0.7,0.7,0.7,1.9,0,2.6L68.6,87.9c-0.4,0.4-0.8,0.5-1.3,0.5s-1-0.2-1.3-0.5L53.1,75c-0.7-0.7-0.7-1.9,0-2.6
		s1.9-0.7,2.6,0L67.3,84L81.9,69z M37.9,25l-2-2l-3.8,3.8c-0.4,0.4-0.8,0.5-1.3,0.5s-1-0.2-1.3-0.5c-0.7-0.7-0.7-1.9,0-2.6l3.8-3.8
		l-2.1-2.1L16.4,33.1L28,44.7c0.7,0.7,0.7,1.9,0,2.6c-0.4,0.4-0.8,0.5-1.3,0.5s-1-0.2-1.3-0.5L12.5,34.4c-0.7-0.7-0.7-1.9,0-2.6
		l17.4-17.4c0.7-0.7,1.9-0.7,2.6,0l12.7,12.7c0.7,0.7,0.7,1.9,0,2.6s-1.9,0.7-2.6,0l-1.9-1.9l-3.8,3.8c-0.4,0.4-0.8,0.5-1.3,0.5
		s-1-0.2-1.3-0.5c-0.7-0.7-0.7-1.9,0-2.6L37.9,25z"/>
</g>
</svg>
